<?xml version="1.0" encoding="UTF-8"?> <svg xmlns="http://www.w3.org/2000/svg" width="158" height="39" viewBox="0 0 158 39" fill="none"><path fill-rule="evenodd" clip-rule="evenodd" d="M52.8697 6.69711C53.1773 6.69711 53.4267 6.94649 53.4267 7.2541L53.4044 21.4555L59.4236 14.4857C59.5294 14.3674 59.6807 14.2998 59.8395 14.3001H63.0422C63.2551 14.3059 63.446 14.4326 63.534 14.6265C63.6221 14.8204 63.5919 15.0475 63.4562 15.2117L56.841 22.7738L63.8963 30.9782C64.0289 31.143 64.0568 31.3687 63.9682 31.5607C63.8796 31.7528 63.6899 31.8782 63.4785 31.8843H60.222C60.0642 31.8849 59.9139 31.8172 59.8098 31.6986L53.4062 24.3965L53.4267 31.3347C53.4267 31.4814 53.3677 31.622 53.2629 31.7247C53.1581 31.8274 53.0164 31.8836 52.8697 31.8806H49.9975C49.6934 31.8806 49.4455 31.6368 49.4405 31.3329V7.2541C49.4405 6.94649 49.6898 6.69711 49.9975 6.69711H52.8697ZM99.6291 10.0298C99.9258 10.0298 100.168 10.2617 100.185 10.554L100.186 10.5868V14.3131H104.354C104.651 14.3131 104.893 14.5449 104.91 14.8373L104.911 14.87V17.098C104.911 17.3946 104.679 17.6371 104.387 17.6541L104.354 17.655H100.186V25.7499C100.186 27.7625 101.098 28.6909 103.055 28.6909C103.441 28.6895 103.824 28.6332 104.195 28.5238C104.361 28.4765 104.54 28.5091 104.679 28.612C104.807 28.7075 104.888 28.8536 104.902 29.0124L104.904 29.0492V31.3496C104.902 31.5726 104.766 31.7728 104.56 31.8583C103.685 32.1832 102.755 32.3376 101.822 32.3132C98.3589 32.3132 96.2826 30.1878 96.2414 26.6287L96.2408 26.5205V17.6643H94.1372C93.8405 17.6643 93.5981 17.4324 93.5811 17.14L93.5802 17.1073V14.8793C93.5802 14.5827 93.8121 14.3402 94.1045 14.3233L94.1372 14.3223H96.237V10.5868C96.237 10.2936 96.4637 10.0526 96.7524 10.0312L96.7847 10.0298H99.6291ZM73.4858 13.886C75.9556 13.886 78.0914 14.8862 79.3645 16.632L79.4177 16.7063L79.6201 16.9922V14.8719C79.6201 14.5787 79.8467 14.3378 80.1355 14.3164L80.1678 14.3149H82.9769C83.2736 14.3149 83.516 14.5468 83.533 14.8392L83.5339 14.8719V31.3291C83.5301 31.6202 83.3033 31.8572 83.0165 31.8774L82.9843 31.8787H80.1678C79.8747 31.8738 79.6376 31.6431 79.621 31.3541L79.6201 31.3217V29.0548L79.4177 29.3425C78.107 31.1992 75.8883 32.3132 73.4858 32.3132C68.6845 32.3132 64.9248 28.2675 64.9248 23.1005C64.9248 17.9335 68.6845 13.886 73.4858 13.886ZM153.773 16.632C152.5 14.8862 150.364 13.886 147.885 13.886C143.086 13.886 139.326 17.9335 139.326 23.1005C139.326 28.2675 143.086 32.3132 147.885 32.3132C150.299 32.3132 152.508 31.1992 153.826 29.3425L154.027 29.0548V31.3217L154.028 31.3544C154.045 31.6468 154.287 31.8787 154.584 31.8787H157.4L157.432 31.8773C157.718 31.8563 157.944 31.6195 157.948 31.3291V14.8719L157.947 14.8392C157.93 14.5468 157.688 14.3149 157.391 14.3149H154.584L154.551 14.3159C154.259 14.3328 154.027 14.5753 154.027 14.8719V16.9922L153.826 16.7063L153.773 16.632ZM111.799 14.3149C112.096 14.3149 112.338 14.5468 112.355 14.8392L112.356 14.8719V24.1161C112.356 26.9586 113.836 28.6537 116.315 28.6537C118.866 28.6537 120.529 26.6994 120.562 23.6644L120.563 23.5721V14.8719C120.563 14.5753 120.795 14.3328 121.087 14.3159L121.12 14.3149H124.009C124.305 14.3149 124.548 14.5468 124.565 14.8392L124.566 14.8719V31.3291C124.566 31.6258 124.334 31.8683 124.041 31.8852L124.009 31.8861H121.12C120.823 31.8861 120.581 31.6543 120.564 31.3619L120.563 31.3291V29.2571L120.357 29.5709C119.204 31.3403 117.317 32.3132 115.045 32.3132C110.97 32.3132 108.421 29.5345 108.364 25.0508L108.363 24.9145V14.8719C108.363 14.5753 108.595 14.3328 108.887 14.3159L108.92 14.3149H111.799ZM138.38 14.4791C138.364 14.1982 138.14 13.9709 137.855 13.9547L137.613 13.9553C135.346 13.9857 133.345 15.2894 132.495 17.2967L132.28 17.8054V14.8719L132.279 14.8392C132.262 14.5468 132.02 14.3149 131.723 14.3149H128.918L128.885 14.3158C128.592 14.3328 128.361 14.5753 128.361 14.8719V31.3291L128.362 31.3619C128.378 31.6543 128.621 31.8861 128.918 31.8861H131.769L131.802 31.8852C132.095 31.8682 132.326 31.6258 132.326 31.3291V24.1532L132.327 24.0412C132.363 20.3565 134.348 17.9818 137.404 17.9818L137.485 17.9819C137.592 17.9823 137.697 17.9844 137.796 17.9948C137.947 18.0023 138.094 17.9483 138.205 17.845C138.315 17.7417 138.379 17.5981 138.381 17.4471V14.5117L138.38 14.4791ZM91.07 7.25225C91.07 6.94873 90.824 6.70268 90.5204 6.70268H87.6334C87.3299 6.70268 87.0838 6.94873 87.0838 7.25225V31.3291C87.0838 31.6327 87.3299 31.8787 87.6334 31.8787H90.5204C90.824 31.8787 91.07 31.6327 91.07 31.3291V7.25225ZM74.3565 17.4768C71.3024 17.4768 68.911 19.9498 68.911 23.1042C68.911 26.2271 71.2548 28.6804 74.2651 28.7291L74.3565 28.7299V28.7261C77.4089 28.7261 79.8002 26.2587 79.8002 23.1042C79.8002 19.9498 77.4107 17.4768 74.3565 17.4768ZM143.327 23.1042C143.327 19.9498 145.718 17.4768 148.771 17.4768C151.823 17.4768 154.216 19.9498 154.216 23.1042C154.216 26.2587 151.825 28.7261 148.771 28.7261V28.7299L148.679 28.7291C145.671 28.6804 143.327 26.2271 143.327 23.1042Z" fill="white"></path><path fill-rule="evenodd" clip-rule="evenodd" d="M18.9897 11.3833C18.1282 11.3833 17.4283 10.5181 17.4283 9.6566V2.24489C17.4283 1.38156 18.1282 0.518219 18.9897 0.518219C19.8512 0.518219 20.553 1.38156 20.553 2.24489V9.64731C20.553 10.5088 19.8531 11.3833 18.9897 11.3833Z" fill="#FF3D23"></path><path fill-rule="evenodd" clip-rule="evenodd" d="M13.2378 13.7561C12.6289 14.3669 11.5223 14.2499 10.9133 13.6391L5.67761 8.41265C5.06863 7.80182 4.95166 6.69711 5.5625 6.08628C6.17333 5.47545 7.27803 5.59241 7.88701 6.20325L13.1227 11.4371C13.7317 12.0405 13.8487 13.1452 13.2378 13.7561Z" fill="#FFD357"></path><path fill-rule="evenodd" clip-rule="evenodd" d="M10.8558 19.5079C10.8558 20.3713 9.99243 21.0712 9.12909 21.0712H1.72667C0.863337 21.0712 0 20.3713 0 19.5079C0 18.6446 0.863337 17.9465 1.72667 17.9465H9.12909C9.99243 17.9465 10.8558 18.6446 10.8558 19.5079Z" fill="#B4DC00"></path><path fill-rule="evenodd" clip-rule="evenodd" d="M13.2379 25.2598C13.8487 25.8706 13.7317 26.9753 13.1227 27.5861L7.88702 32.82C7.27804 33.4308 6.17148 33.5478 5.5625 32.937C4.95353 32.3261 5.06864 31.2214 5.67762 30.6106L10.9133 25.3767C11.5223 24.7659 12.6289 24.6508 13.2379 25.2598Z" fill="#41BEFF"></path><path fill-rule="evenodd" clip-rule="evenodd" d="M18.9897 27.6437C19.8531 27.6437 20.553 28.507 20.553 29.3704V36.7728C20.553 37.6361 19.8531 38.4995 18.9897 38.4995C18.1264 38.4995 17.4283 37.6361 17.4283 36.7728V29.3704C17.4283 28.507 18.1282 27.6437 18.9897 27.6437Z" fill="#006EFA"></path><path fill-rule="evenodd" clip-rule="evenodd" d="M24.7416 25.2598C25.3524 24.6508 26.4571 24.7659 27.0679 25.3767L32.3018 30.6106C32.9126 31.2214 33.0296 32.3261 32.4188 32.937C31.8079 33.5478 30.7032 33.4308 30.0924 32.82L24.8585 27.5861C24.2477 26.979 24.1326 25.865 24.7416 25.2598Z" fill="#FFAA00"></path><path fill-rule="evenodd" clip-rule="evenodd" d="M27.1255 19.5079C27.1255 18.6446 27.9888 17.9465 28.8522 17.9465H36.2546C37.1179 17.9465 37.9813 18.6446 37.9813 19.5079C37.9813 20.3713 37.1179 21.0712 36.2546 21.0712H28.8447C27.9888 21.0712 27.1255 20.3713 27.1255 19.5079Z" fill="#00A078"></path><path fill-rule="evenodd" clip-rule="evenodd" d="M24.7416 13.756C24.1326 13.1452 24.2477 12.0405 24.8585 11.4297L30.0924 6.19581C30.7032 5.58498 31.8079 5.46986 32.4188 6.07884C33.0296 6.68782 32.9126 7.79438 32.3018 8.40521L27.0679 13.6391C26.4571 14.2499 25.3524 14.3669 24.7416 13.756Z" fill="#5BC686"></path><circle cx="18.9897" cy="19.5079" r="2.51203" fill="white"></circle></svg> 